<?xml version="1.0" encoding="UTF-8"?>
<svg version="1.1" xmlns="http://www.w3.org/2000/svg" width="1004" height="591">
<path d="M0 0 C331.32 0 662.64 0 1004 0 C1004 195.03 1004 390.06 1004 591 C672.68 591 341.36 591 0 591 C0 395.97 0 200.94 0 0 Z " fill="#FEFEFE" transform="translate(0,0)"/>
<path d="M0 0 C0.72574219 -0.01224609 1.45148438 -0.02449219 2.19921875 -0.03710938 C13.97486713 -0.06859507 25.59503887 4.45911418 34.234375 12.57421875 C44.30344525 23.2920693 48.26683551 34.96651409 48.0234375 49.4609375 C47.53839808 61.44285179 42.77636539 71.30237754 34.25 79.62890625 C31.78316535 81.85713338 29.27952478 84.03097294 26.75 86.1875 C22.17721508 90.2604689 19.96149035 93.4819416 19.4715271 99.74995422 C19.44815719 101.13826576 19.43536868 102.52678139 19.43115234 103.9152832 C19.42110672 104.67679184 19.4110611 105.43830048 19.40071106 106.22288513 C19.36993763 108.72800983 19.35286034 111.23302794 19.3359375 113.73828125 C19.31722114 115.47992364 19.29764737 117.221557 19.2772522 118.96318054 C19.22597442 123.53828609 19.18632542 128.11342101 19.14910889 132.68865967 C19.10904193 137.36087284 19.05796186 142.03296422 19.0078125 146.70507812 C18.91110478 155.86579981 18.82668351 165.02659034 18.75 174.1875 C19.41 174.1875 20.07 174.1875 20.75 174.1875 C21.06904297 173.36765625 21.06904297 173.36765625 21.39453125 172.53125 C23.2296466 169.35813989 25.74423884 167.11827558 28.4375 164.6875 C29.01274414 164.16414062 29.58798828 163.64078125 30.18066406 163.1015625 C58.82271362 137.34066585 93.58565069 115.07695154 130.75 104.1875 C131.71760254 103.90181152 132.68520508 103.61612305 133.68212891 103.32177734 C162.20969434 95.01804003 201.33672038 85.5263837 230.75 93.1875 C232.21195775 93.33848603 233.67760933 93.45600512 235.14453125 93.546875 C282.91644758 96.92500322 329.71150418 116.35891392 367.75 145.1875 C368.32411621 145.61885254 368.89823242 146.05020508 369.48974609 146.49462891 C380.67766216 154.93874632 390.85935274 164.27198895 400.75 174.1875 C400.84281939 164.13853772 400.91382554 154.08967801 400.95724869 144.0403738 C400.97809328 139.37368528 401.00635351 134.7072908 401.05175781 130.04077148 C401.09532753 125.5344308 401.11916063 121.02837235 401.12950897 116.52183723 C401.13688042 114.80547711 401.15127524 113.08913184 401.17292023 111.37289238 C401.20210298 108.96237089 401.20594993 106.55300466 401.20410156 104.14233398 C401.22567322 103.08604797 401.22567322 103.08604797 401.24768066 102.00842285 C401.19751563 95.93307897 399.14419665 91.85155041 395.10595703 87.3581543 C394.57856934 86.91383057 394.05118164 86.46950684 393.5078125 86.01171875 C392.91911377 85.49891357 392.33041504 84.9861084 391.72387695 84.45776367 C391.11374756 83.93545166 390.50361816 83.41313965 389.875 82.875 C379.54846383 73.65644417 373.62072839 63.17866167 372.51171875 49.1796875 C372.17009587 34.83152642 377.31403382 22.74952019 387.1875 12.3125 C396.87371753 3.31355289 407.85306329 -0.52510027 421.03125 -0.13671875 C434.96361766 1.07797297 445.20328923 6.00330528 454.75 16.1875 C461.99340478 25.61477775 465.33691692 34.64670526 465.25 46.5 C465.24355469 47.42280762 465.23710938 48.34561523 465.23046875 49.29638672 C464.90271186 61.56355068 459.87302271 71.07901526 451.75 80.1875 C449.25624483 82.28375434 446.7404121 84.21153509 444.046875 86.04296875 C439.31326445 90.46261533 437.5554899 95.4049453 437.18823242 101.72247314 C437.14043601 103.8683381 437.11419915 106.01475338 437.10546875 108.16113281 C437.08560913 109.33961792 437.06574951 110.51810303 437.04528809 111.7322998 C436.99708679 114.94803727 436.96707925 118.16319523 436.94924545 121.37922764 C436.93745128 123.39896776 436.9210186 125.41862072 436.90322876 127.43831635 C436.84859436 133.78789195 436.80990834 140.13726377 436.7944212 146.48705792 C436.77657518 153.75988208 436.70673698 161.02966986 436.59041882 168.30157208 C436.50315901 173.95810911 436.46356235 179.61380531 436.45825672 185.27100635 C436.45411419 188.63352027 436.42560417 191.99093331 436.35897827 195.35312653 C436.04214081 212.58043306 437.9095772 224.22287088 448.31822205 238.2025528 C471.9664132 270.98725296 482.33094566 318.6728561 486.75 358.1875 C486.90251221 359.54488281 486.90251221 359.54488281 487.05810547 360.9296875 C487.90867602 369.6385596 487.97035297 378.3533422 487.99023438 387.09619141 C487.99998281 389.68293924 488.03112988 392.26890465 488.0625 394.85546875 C488.12142689 404.07531533 487.65672983 412.33960147 484.75 421.1875 C484.39679687 422.38761719 484.04359375 423.58773438 483.6796875 424.82421875 C467.98972718 470.20888176 428.24040216 499.34313783 386.75292969 519.95776367 C377.77666319 524.30703675 368.6282762 527.97046295 359.23095703 531.29931641 C356.84832611 532.15229921 354.48453084 533.04461887 352.12109375 533.94921875 C325.22551042 544.06408753 297.1147728 548.86146613 268.79040527 552.89227295 C266.84072323 553.17437322 264.89342129 553.47277917 262.94628906 553.77197266 C255.53292443 554.89647179 248.24376997 555.59197552 240.75 555.8125 C239.59556396 555.84827148 238.44112793 555.88404297 237.25170898 555.92089844 C233.0846391 556.032809 228.9179532 556.11749381 224.75 556.1875 C223.8970636 556.2018811 223.0441272 556.21626221 222.16534424 556.2310791 C197.84370509 556.61752564 173.87059392 556.6872058 149.75 553.1875 C148.68136719 553.03764648 147.61273438 552.88779297 146.51171875 552.73339844 C105.82451869 546.94026929 66.73397723 536.32505315 29.75 518.1875 C28.97366211 517.81157715 28.19732422 517.4356543 27.39746094 517.04833984 C-6.55037742 500.46863406 -38.71034057 475.21704052 -56.25 441.1875 C-56.72179687 440.28862061 -56.72179687 440.28862061 -57.203125 439.37158203 C-58.15918311 437.5295049 -59.08445762 435.67501013 -60 433.8125 C-60.53109375 432.73226563 -61.0621875 431.65203125 -61.609375 430.5390625 C-67.49874572 415.9603062 -67.90444493 401.89066202 -67.75 386.375 C-67.74446106 385.28934753 -67.73892212 384.20369507 -67.73321533 383.08514404 C-67.63356853 366.43677034 -66.68582435 350.51561896 -63.25 334.1875 C-62.83229717 332.00149982 -62.41566094 329.81529561 -62 327.62890625 C-55.28929758 293.81540348 -43.11125344 255.93690011 -22.48837566 227.78252888 C-17.38567648 220.63690178 -16.2443549 215.32523391 -16.3918457 206.65112305 C-16.38439835 205.44971176 -16.37695099 204.24830048 -16.36927795 203.01048279 C-16.35651728 199.74973999 -16.37468399 196.49108337 -16.40851617 193.23054862 C-16.43764455 189.80343718 -16.42975934 186.37637961 -16.42704773 182.94917297 C-16.42803384 177.20208123 -16.45630645 171.45563931 -16.50219727 165.70874023 C-16.55492879 159.07545291 -16.56885545 152.44297175 -16.5611642 145.80949754 C-16.55423993 139.40589022 -16.57012252 133.00255391 -16.59792137 126.59900856 C-16.60959023 123.88262368 -16.61417083 121.16636563 -16.61312294 118.44995689 C-16.61708849 114.65850201 -16.64721455 110.86815544 -16.68481445 107.0769043 C-16.68143066 105.95626587 -16.67804688 104.83562744 -16.67456055 103.68103027 C-16.7844548 96.39189779 -17.76531444 92.86894588 -22.80224609 87.54760742 C-23.28773926 87.13357666 -23.77323242 86.7195459 -24.2734375 86.29296875 C-24.81685791 85.81714355 -25.36027832 85.34131836 -25.92016602 84.85107422 C-26.48276123 84.36396973 -27.04535645 83.87686523 -27.625 83.375 C-38.08926169 73.98202055 -44.20242917 63.44140377 -45.5234375 49.25 C-45.99186352 35.12515396 -40.76117811 23.2631019 -31.22265625 13.0078125 C-22.28583146 4.44268205 -12.27125263 0.01067065 0 0 Z " fill="#FEFEFE" transform="translate(291.25,16.8125)"/>
<path d="M0 0 C0.72574219 -0.01224609 1.45148438 -0.02449219 2.19921875 -0.03710938 C13.97486713 -0.06859507 25.59503887 4.45911418 34.234375 12.57421875 C44.30344525 23.2920693 48.26683551 34.96651409 48.0234375 49.4609375 C47.53839808 61.44285179 42.77636539 71.30237754 34.25 79.62890625 C31.78316535 81.85713338 29.27952478 84.03097294 26.75 86.1875 C22.17721508 90.2604689 19.96149035 93.4819416 19.4715271 99.74995422 C19.44815719 101.13826576 19.43536868 102.52678139 19.43115234 103.9152832 C19.42110672 104.67679184 19.4110611 105.43830048 19.40071106 106.22288513 C19.36993763 108.72800983 19.35286034 111.23302794 19.3359375 113.73828125 C19.31722114 115.47992364 19.29764737 117.221557 19.2772522 118.96318054 C19.22597442 123.53828609 19.18632542 128.11342101 19.14910889 132.68865967 C19.10904193 137.36087284 19.05796186 142.03296422 19.0078125 146.70507812 C18.91110478 155.86579981 18.82668351 165.02659034 18.75 174.1875 C19.41 174.1875 20.07 174.1875 20.75 174.1875 C21.06904297 173.36765625 21.06904297 173.36765625 21.39453125 172.53125 C23.2296466 169.35813989 25.74423884 167.11827558 28.4375 164.6875 C29.01274414 164.16414062 29.58798828 163.64078125 30.18066406 163.1015625 C58.82271362 137.34066585 93.58565069 115.07695154 130.75 104.1875 C131.71760254 103.90181152 132.68520508 103.61612305 133.68212891 103.32177734 C162.20969434 95.01804003 201.33672038 85.5263837 230.75 93.1875 C232.21195775 93.33848603 233.67760933 93.45600512 235.14453125 93.546875 C282.91644758 96.92500322 329.71150418 116.35891392 367.75 145.1875 C368.32411621 145.61885254 368.89823242 146.05020508 369.48974609 146.49462891 C380.67766216 154.93874632 390.85935274 164.27198895 400.75 174.1875 C400.84281939 164.13853772 400.91382554 154.08967801 400.95724869 144.0403738 C400.97809328 139.37368528 401.00635351 134.7072908 401.05175781 130.04077148 C401.09532753 125.5344308 401.11916063 121.02837235 401.12950897 116.52183723 C401.13688042 114.80547711 401.15127524 113.08913184 401.17292023 111.37289238 C401.20210298 108.96237089 401.20594993 106.55300466 401.20410156 104.14233398 C401.22567322 103.08604797 401.22567322 103.08604797 401.24768066 102.00842285 C401.19751563 95.93307897 399.14419665 91.85155041 395.10595703 87.3581543 C394.57856934 86.91383057 394.05118164 86.46950684 393.5078125 86.01171875 C392.91911377 85.49891357 392.33041504 84.9861084 391.72387695 84.45776367 C391.11374756 83.93545166 390.50361816 83.41313965 389.875 82.875 C379.54846383 73.65644417 373.62072839 63.17866167 372.51171875 49.1796875 C372.17009587 34.83152642 377.31403382 22.74952019 387.1875 12.3125 C396.87371753 3.31355289 407.85306329 -0.52510027 421.03125 -0.13671875 C434.96361766 1.07797297 445.20328923 6.00330528 454.75 16.1875 C461.99340478 25.61477775 465.33691692 34.64670526 465.25 46.5 C465.24355469 47.42280762 465.23710938 48.34561523 465.23046875 49.29638672 C464.90271186 61.56355068 459.87302271 71.07901526 451.75 80.1875 C449.25624483 82.28375434 446.7404121 84.21153509 444.046875 86.04296875 C439.31326445 90.46261533 437.5554899 95.4049453 437.18823242 101.72247314 C437.14043601 103.8683381 437.11419915 106.01475338 437.10546875 108.16113281 C437.08560913 109.33961792 437.06574951 110.51810303 437.04528809 111.7322998 C436.99708679 114.94803727 436.96707925 118.16319523 436.94924545 121.37922764 C436.93745128 123.39896776 436.9210186 125.41862072 436.90322876 127.43831635 C436.84859436 133.78789195 436.80990834 140.13726377 436.7944212 146.48705792 C436.77657518 153.75988208 436.70673698 161.02966986 436.59041882 168.30157208 C436.50315901 173.95810911 436.46356235 179.61380531 436.45825672 185.27100635 C436.45411419 188.63352027 436.42560417 191.99093331 436.35897827 195.35312653 C436.04214081 212.58043306 437.9095772 224.22287088 448.31822205 238.2025528 C471.9664132 270.98725296 482.33094566 318.6728561 486.75 358.1875 C486.90251221 359.54488281 486.90251221 359.54488281 487.05810547 360.9296875 C487.90867602 369.6385596 487.97035297 378.3533422 487.99023438 387.09619141 C487.99998281 389.68293924 488.03112988 392.26890465 488.0625 394.85546875 C488.12142689 404.07531533 487.65672983 412.33960147 484.75 421.1875 C484.39679687 422.38761719 484.04359375 423.58773438 483.6796875 424.82421875 C467.98972718 470.20888176 428.24040216 499.34313783 386.75292969 519.95776367 C377.77666319 524.30703675 368.6282762 527.97046295 359.23095703 531.29931641 C356.84832611 532.15229921 354.48453084 533.04461887 352.12109375 533.94921875 C325.22551042 544.06408753 297.1147728 548.86146613 268.79040527 552.89227295 C266.84072323 553.17437322 264.89342129 553.47277917 262.94628906 553.77197266 C255.53292443 554.89647179 248.24376997 555.59197552 240.75 555.8125 C239.59556396 555.84827148 238.44112793 555.88404297 237.25170898 555.92089844 C233.0846391 556.032809 228.9179532 556.11749381 224.75 556.1875 C223.8970636 556.2018811 223.0441272 556.21626221 222.16534424 556.2310791 C197.84370509 556.61752564 173.87059392 556.6872058 149.75 553.1875 C148.68136719 553.03764648 147.61273438 552.88779297 146.51171875 552.73339844 C105.82451869 546.94026929 66.73397723 536.32505315 29.75 518.1875 C28.97366211 517.81157715 28.19732422 517.4356543 27.39746094 517.04833984 C-6.55037742 500.46863406 -38.71034057 475.21704052 -56.25 441.1875 C-56.72179687 440.28862061 -56.72179687 440.28862061 -57.203125 439.37158203 C-58.15918311 437.5295049 -59.08445762 435.67501013 -60 433.8125 C-60.53109375 432.73226563 -61.0621875 431.65203125 -61.609375 430.5390625 C-67.49874572 415.9603062 -67.90444493 401.89066202 -67.75 386.375 C-67.74446106 385.28934753 -67.73892212 384.20369507 -67.73321533 383.08514404 C-67.63356853 366.43677034 -66.68582435 350.51561896 -63.25 334.1875 C-62.83229717 332.00149982 -62.41566094 329.81529561 -62 327.62890625 C-55.28929758 293.81540348 -43.11125344 255.93690011 -22.48837566 227.78252888 C-17.38567648 220.63690178 -16.2443549 215.32523391 -16.3918457 206.65112305 C-16.38439835 205.44971176 -16.37695099 204.24830048 -16.36927795 203.01048279 C-16.35651728 199.74973999 -16.37468399 196.49108337 -16.40851617 193.23054862 C-16.43764455 189.80343718 -16.42975934 186.37637961 -16.42704773 182.94917297 C-16.42803384 177.20208123 -16.45630645 171.45563931 -16.50219727 165.70874023 C-16.55492879 159.07545291 -16.56885545 152.44297175 -16.5611642 145.80949754 C-16.55423993 139.40589022 -16.57012252 133.00255391 -16.59792137 126.59900856 C-16.60959023 123.88262368 -16.61417083 121.16636563 -16.61312294 118.44995689 C-16.61708849 114.65850201 -16.64721455 110.86815544 -16.68481445 107.0769043 C-16.68143066 105.95626587 -16.67804688 104.83562744 -16.67456055 103.68103027 C-16.7844548 96.39189779 -17.76531444 92.86894588 -22.80224609 87.54760742 C-23.28773926 87.13357666 -23.77323242 86.7195459 -24.2734375 86.29296875 C-24.81685791 85.81714355 -25.36027832 85.34131836 -25.92016602 84.85107422 C-26.48276123 84.36396973 -27.04535645 83.87686523 -27.625 83.375 C-38.08926169 73.98202055 -44.20242917 63.44140377 -45.5234375 49.25 C-45.99186352 35.12515396 -40.76117811 23.2631019 -31.22265625 13.0078125 C-22.28583146 4.44268205 -12.27125263 0.01067065 0 0 Z M172.75 142.1875 C171.82171387 142.35378906 170.89342773 142.52007812 169.93701172 142.69140625 C128.7046698 150.24542309 91.62134185 170.20022195 61.23095703 198.8125 C59.72447944 200.21119466 58.19364366 201.5773306 56.65234375 202.9375 C49.97255186 208.8577943 44.25117913 215.14746506 38.75 222.1875 C37.81975868 223.31007817 36.88598194 224.42973338 35.94921875 225.546875 C-3.67235078 273.14995493 -24.86079986 338.45416514 -21.25 400.1875 C-19.58421789 415.69599115 -10.45718424 428.89266498 -0.25 440.1875 C0.53632813 441.06792969 1.32265625 441.94835937 2.1328125 442.85546875 C35.14866512 477.84015662 86.57213252 494.37281517 132.3125 503.5 C133.44349121 503.73025879 134.57448242 503.96051758 135.73974609 504.19775391 C157.87065622 508.3890045 180.07748336 509.65106303 202.56323242 509.46875 C206.47389242 509.43720646 210.38414622 509.42771452 214.29492188 509.421875 C234.15758648 509.36317056 253.35825421 508.39162581 273 505.4375 C273.90640228 505.30200745 274.81280457 505.16651489 275.74667358 505.0269165 C308.36473194 500.11881832 341.27221157 491.37181863 370.75 476.1875 C371.50829102 475.79884766 372.26658203 475.41019531 373.04785156 475.00976562 C389.17579373 466.63213945 403.7311897 456.88274338 416.75 444.1875 C417.54921875 443.46175781 418.3484375 442.73601562 419.171875 441.98828125 C428.80620819 433.00177391 435.46468691 421.59597687 439.75 409.1875 C440.11609375 408.15109375 440.4821875 407.1146875 440.859375 406.046875 C450.23971667 365.39872776 432.41888243 310.36734993 414.75 274.1875 C414.19820068 273.03918701 414.19820068 273.03918701 413.63525391 271.86767578 C408.69164362 261.67107392 402.94843463 252.13031673 396.6875 242.6875 C396.039021 241.7087793 395.39054199 240.73005859 394.72241211 239.72167969 C388.48964792 230.49966083 381.54414898 221.87500585 373.9375 213.75 C373.43742432 213.21342773 372.93734863 212.67685547 372.42211914 212.12402344 C363.69913192 202.81914033 354.88109547 193.98374697 344.75 186.1875 C344.21068848 185.76645996 343.67137695 185.34541992 343.11572266 184.91162109 C295.26527065 147.73080179 232.54604865 131.07079635 172.75 142.1875 Z " fill="#010101" transform="translate(291.25,16.8125)"/>
<path d="M0 0 C14.25496398 4.03662792 28.42380492 7.30215096 43.10562134 9.38165283 C44.48886597 9.58564697 44.48886597 9.58564697 45.90005493 9.79376221 C52.62257642 10.77771485 59.35425089 11.62210938 66.10562134 12.38165283 C67.01811646 12.48751709 67.93061157 12.59338135 68.87075806 12.70245361 C98.58890236 16.01731114 129.39596616 15.57930936 159.10562134 12.38165283 C159.85762817 12.30688721 160.60963501 12.23212158 161.38442993 12.15509033 C177.82134938 10.51025614 193.98899163 6.90205438 210.10562134 3.38165283 C211.75074707 3.02635498 211.75074707 3.02635498 213.42910767 2.66387939 C220.17667211 1.16453365 226.73593566 -0.66242243 233.30996704 -2.79998779 C239.95433868 -4.74496498 245.18918314 -3.54941381 251.61343384 -1.27459717 C258.95681057 3.60564066 261.99241094 12.02548409 265.04312134 19.94415283 C265.68434937 21.58420288 265.68434937 21.58420288 266.33853149 23.25738525 C278.49420802 54.89997403 285.06286687 88.21758559 285.48062134 122.13165283 C285.51800415 123.29825439 285.55538696 124.46485596 285.59390259 125.66680908 C285.68237102 134.34654482 284.08709338 139.19437906 278.14077759 145.44805908 C266.33329415 154.40304157 253.11059709 159.09355804 239.10562134 163.38165283 C237.34605103 163.93659424 237.34605103 163.93659424 235.55093384 164.50274658 C196.4599074 176.3220334 154.62168722 177.92245383 114.08078003 177.70422363 C110.67856255 177.6907218 107.27647418 177.69607725 103.87424183 177.70109081 C85.52230541 177.72148882 67.36919718 177.38441734 49.10562134 175.38165283 C47.80793823 175.25073242 46.51025513 175.11981201 45.17324829 174.98492432 C42.12533352 174.66732685 39.08453466 174.31838359 36.04312134 173.94415283 C35.00566772 173.81782471 33.96821411 173.69149658 32.89932251 173.56134033 C24.8659113 172.54862542 17.00967967 171.15052337 9.10562134 169.38165283 C8.00089478 169.15735596 6.89616821 168.93305908 5.75796509 168.70196533 C2.19541289 167.97391219 -1.34957434 167.19178908 -4.89437866 166.38165283 C-5.60578003 166.21971436 -6.3171814 166.05777588 -7.05014038 165.89093018 C-26.29105201 161.42406902 -48.72511197 155.02829124 -60.89437866 138.38165283 C-63.21251436 133.74538143 -62.13861657 127.4460667 -62.14437866 122.31915283 C-62.14571808 121.62547607 -62.1470575 120.93179932 -62.1484375 120.21710205 C-62.1407016 101.68080746 -60.04370255 83.45550958 -55.89437866 65.38165283 C-55.54260433 63.7580008 -55.19105791 62.13429937 -54.83969116 60.51055908 C-51.31120986 44.59167428 -46.24918908 29.4649215 -39.76937866 14.50665283 C-39.30084473 13.40994263 -39.30084473 13.40994263 -38.82284546 12.29107666 C-36.22876431 6.50292741 -33.03301869 0.95097285 -27.14437866 -1.99334717 C-26.55140991 -2.31045654 -25.95844116 -2.62756592 -25.34750366 -2.95428467 C-16.62682022 -5.31497923 -8.37584067 -2.38218966 0 0 Z " fill="#000000" transform="translate(389.8943786621094,279.61834716796875)"/>
<path d="M0 0 C5.80556738 4.69754657 10.14016181 9.73731859 11.75 17.1875 C12.61796212 25.90279088 12.12102575 33.74476086 6.72265625 40.859375 C0.58316846 47.9284691 -4.98687944 52.36825913 -14.5703125 53.44921875 C-23.34294725 53.84797488 -30.22460955 51.12158512 -37.0625 45.6875 C-43.36131255 39.66789014 -46.44914422 32.11418056 -46.75 23.4375 C-46.28543742 14.46886126 -42.59736409 7.0639031 -35.9375 1 C-25.18722125 -7.7935899 -11.21114812 -8.04415712 0 0 Z " fill="#FCFCFC" transform="translate(605.25,357.8125)"/>
<path d="M0 0 C7.17579767 4.58382805 11.30778036 10.98229479 14 19 C15.27415151 26.84093235 13.9910388 33.19947994 10 40 C9.649375 40.62648438 9.29875 41.25296875 8.9375 41.8984375 C5.13781176 47.94099728 -0.57616186 51.39735236 -6.9375 54.375 C-15.33292488 56.08835202 -22.49583594 55.24718984 -30 51 C-37.30901339 45.81369851 -42.22298321 39.88508393 -44 31 C-44.83087459 22.24020789 -44.28766847 15.22730386 -39 8 C-28.41470048 -4.02306658 -14.3089029 -7.85816799 0 0 Z " fill="#FCFCFC" transform="translate(430,356)"/>
</svg>
